<?xml version="1.0" encoding="UTF-8" standalone="no"?>
<svg
   height="40px"
   viewBox="0 -960 960 960"
   width="40px"
   fill="#000000"
   version="1.1"
   id="svg1"
   sodipodi:docname="delete_icon.svg"
   inkscape:version="1.3.2 (091e20e, 2023-11-25, custom)"
   xmlns:inkscape="http://www.inkscape.org/namespaces/inkscape"
   xmlns:sodipodi="http://sodipodi.sourceforge.net/DTD/sodipodi-0.dtd"
   xmlns="http://www.w3.org/2000/svg"
   xmlns:svg="http://www.w3.org/2000/svg">
  <defs
     id="defs1" />
  <sodipodi:namedview
     id="namedview1"
     pagecolor="#ffffff"
     bordercolor="#000000"
     borderopacity="0.25"
     inkscape:showpageshadow="2"
     inkscape:pageopacity="0.0"
     inkscape:pagecheckerboard="0"
     inkscape:deskcolor="#d1d1d1"
     inkscape:zoom="19.425"
     inkscape:cx="20"
     inkscape:cy="20"
     inkscape:window-width="1920"
     inkscape:window-height="991"
     inkscape:window-x="2391"
     inkscape:window-y="-9"
     inkscape:window-maximized="1"
     inkscape:current-layer="svg1" />
  <path
     d="M267.33-120q-27.5 0-47.08-19.58-19.58-19.59-19.58-47.09V-740H160v-66.67h192V-840h256v33.33h192V-740h-40.67v553.33q0 27-19.83 46.84Q719.67-120 692.67-120H267.33Zm425.34-620H267.33v553.33h425.34V-740Zm-328 469.33h66.66v-386h-66.66v386Zm164 0h66.66v-386h-66.66v386ZM267.33-740v553.33V-740Z"
     id="path1"
     style="fill:#000000" />
  <path
     style="opacity:0;fill:#ffffff;fill-opacity:0;stroke-width:0.20592"
     d="M 10.548825,34.904305 C 9.6437381,34.707376 8.820134,33.950856 8.5063188,33.028166 L 8.3912484,32.689833 8.3774097,20.913771 8.3635711,9.1377091 H 7.5151189 6.6666667 V 7.7734878 6.4092664 h 4.0154443 4.015444 V 5.7142857 5.019305 H 20 25.302445 v 0.6949807 0.6949807 h 4.015444 4.015444 v 1.3642214 1.3642213 h -0.848452 -0.848452 l -0.01384,11.7760619 -0.01384,11.776062 -0.11463,0.33462 c -0.324098,0.946088 -1.210828,1.731134 -2.147077,1.900865 -0.488536,0.08857 -18.386548,0.06856 -18.79822,-0.02101 z M 28.906049,20.694981 V 9.1377091 H 20 11.093951 V 20.694981 32.252252 H 20 28.906049 Z"
     id="path2"
     transform="matrix(24,0,0,24,0,-960)" />
  <path
     style="opacity:0;fill:#ffffff;fill-opacity:0;stroke-width:0.20592"
     d="M 10.548825,34.904305 C 9.6437381,34.707376 8.820134,33.950856 8.5063188,33.028166 L 8.3912484,32.689833 8.3774097,20.913771 8.3635711,9.1377091 H 7.5151189 6.6666667 V 7.7734878 6.4092664 h 4.0154443 4.015444 V 5.7142857 5.019305 H 20 25.302445 v 0.6949807 0.6949807 h 4.015444 4.015444 v 1.3642214 1.3642213 h -0.848452 -0.848452 l -0.01384,11.7760619 -0.01384,11.776062 -0.11463,0.33462 c -0.324098,0.946088 -1.210828,1.731134 -2.147077,1.900865 -0.488536,0.08857 -18.386548,0.06856 -18.79822,-0.02101 z M 28.906049,20.694981 V 9.1377091 H 20 11.093951 V 20.694981 32.252252 H 20 28.906049 Z"
     id="path3"
     transform="matrix(24,0,0,24,0,-960)" />
  <path
     style="opacity:0;fill:#ffffff;fill-opacity:0;stroke-width:0.20592"
     d="M 10.548825,34.904305 C 9.6437381,34.707376 8.820134,33.950856 8.5063188,33.028166 L 8.3912484,32.689833 8.3774097,20.913771 8.3635711,9.1377091 H 7.5151189 6.6666667 V 7.7734878 6.4092664 h 4.0154443 4.015444 V 5.7142857 5.019305 H 20 25.302445 v 0.6949807 0.6949807 h 4.015444 4.015444 v 1.3642214 1.3642213 h -0.848452 -0.848452 l -0.01384,11.7760619 -0.01384,11.776062 -0.11463,0.33462 c -0.324098,0.946088 -1.210828,1.731134 -2.147077,1.900865 -0.488536,0.08857 -18.386548,0.06856 -18.79822,-0.02101 z M 28.906049,20.694981 V 9.1377091 H 20 11.093951 V 20.694981 32.252252 H 20 28.906049 Z"
     id="path4"
     transform="matrix(24,0,0,24,0,-960)" />
  <path
     style="opacity:0;fill:#ffffff;fill-opacity:0;stroke-width:0.20592"
     d="M 10.548825,34.904305 C 9.6437381,34.707376 8.820134,33.950856 8.5063188,33.028166 L 8.3912484,32.689833 8.3774097,20.913771 8.3635711,9.1377091 H 7.5151189 6.6666667 V 7.7734878 6.4092664 h 4.0154443 4.015444 V 5.7142857 5.019305 H 20 25.302445 v 0.6949807 0.6949807 h 4.015444 4.015444 v 1.3642214 1.3642213 h -0.848452 -0.848452 l -0.01384,11.7760619 -0.01384,11.776062 -0.11463,0.33462 c -0.324098,0.946088 -1.210828,1.731134 -2.147077,1.900865 -0.488536,0.08857 -18.386548,0.06856 -18.79822,-0.02101 z M 28.906049,20.694981 V 9.1377091 H 20 11.093951 V 20.694981 32.252252 H 20 28.906049 Z"
     id="path5"
     transform="matrix(24,0,0,24,0,-960)" />
  <path
     style="opacity:0;fill:#ffffff;fill-opacity:0;stroke-width:0.20592"
     d="M 10.548825,34.904305 C 9.6437381,34.707376 8.820134,33.950856 8.5063188,33.028166 L 8.3912484,32.689833 8.3774097,20.913771 8.3635711,9.1377091 H 7.5151189 6.6666667 V 7.7734878 6.4092664 h 4.0154443 4.015444 V 5.7142857 5.019305 H 20 25.302445 v 0.6949807 0.6949807 h 4.015444 4.015444 v 1.3642214 1.3642213 h -0.848452 -0.848452 l -0.01384,11.7760619 -0.01384,11.776062 -0.11463,0.33462 c -0.324098,0.946088 -1.210828,1.731134 -2.147077,1.900865 -0.488536,0.08857 -18.386548,0.06856 -18.79822,-0.02101 z M 28.906049,20.694981 V 9.1377091 H 20 11.093951 V 20.694981 32.252252 H 20 28.906049 Z"
     id="path6"
     transform="matrix(24,0,0,24,0,-960)" />
  <path
     style="opacity:0;fill:#ffffff;fill-opacity:0;stroke-width:0.20592"
     d="M 10.548825,34.904305 C 9.6437381,34.707376 8.820134,33.950856 8.5063188,33.028166 L 8.3912484,32.689833 8.3774097,20.913771 8.3635711,9.1377091 H 7.5151189 6.6666667 V 7.7734878 6.4092664 h 4.0154443 4.015444 V 5.7142857 5.019305 H 20 25.302445 v 0.6949807 0.6949807 h 4.015444 4.015444 v 1.3642214 1.3642213 h -0.848452 -0.848452 l -0.01384,11.7760619 -0.01384,11.776062 -0.11463,0.33462 c -0.324098,0.946088 -1.210828,1.731134 -2.147077,1.900865 -0.488536,0.08857 -18.386548,0.06856 -18.79822,-0.02101 z M 28.906049,20.694981 V 9.1377091 H 20 11.093951 V 20.694981 32.252252 H 20 28.906049 Z"
     id="path7"
     transform="matrix(24,0,0,24,0,-960)" />
  <path
     style="opacity:0;fill:#ffffff;fill-opacity:0;stroke-width:0.20592"
     d="M 10.548825,34.904305 C 9.6437381,34.707376 8.820134,33.950856 8.5063188,33.028166 L 8.3912484,32.689833 8.3774097,20.913771 8.3635711,9.1377091 H 7.5151189 6.6666667 V 7.7734878 6.4092664 h 4.0154443 4.015444 V 5.7142857 5.019305 H 20 25.302445 v 0.6949807 0.6949807 h 4.015444 4.015444 v 1.3642214 1.3642213 h -0.848452 -0.848452 l -0.01384,11.7760619 -0.01384,11.776062 -0.11463,0.33462 c -0.324098,0.946088 -1.210828,1.731134 -2.147077,1.900865 -0.488536,0.08857 -18.386548,0.06856 -18.79822,-0.02101 z M 28.906049,20.694981 V 9.1377091 H 20 11.093951 V 20.694981 32.252252 H 20 28.906049 Z"
     id="path8"
     transform="matrix(24,0,0,24,0,-960)" />
  <path
     style="opacity:0;fill:#ffffff;fill-opacity:0;stroke-width:0.20592"
     d="m 15.212355,20.669241 v -8.030888 h 1.364222 1.364221 v 8.030888 8.030888 h -1.364221 -1.364222 z"
     id="path14"
     transform="matrix(24,0,0,24,0,-960)" />
  <path
     style="opacity:0;fill:#ffffff;fill-opacity:0;stroke-width:0.20592"
     d="m 15.212355,20.669241 v -8.030888 h 1.364222 1.364221 v 8.030888 8.030888 h -1.364221 -1.364222 z"
     id="path15"
     transform="matrix(24,0,0,24,0,-960)" />
  <path
     style="opacity:0;fill:#ffffff;fill-opacity:0;stroke-width:0.20592"
     d="m 15.212355,20.669241 v -8.030888 h 1.364222 1.364221 v 8.030888 8.030888 h -1.364221 -1.364222 z"
     id="path16"
     transform="matrix(24,0,0,24,0,-960)" />
  <path
     style="opacity:0;fill:#ffffff;fill-opacity:0;stroke-width:0.20592"
     d="m 15.212355,20.669241 v -8.030888 h 1.364222 1.364221 v 8.030888 8.030888 h -1.364221 -1.364222 z"
     id="path17"
     transform="matrix(24,0,0,24,0,-960)" />
  <path
     style="opacity:0;fill:#ffffff;fill-opacity:0;stroke-width:0.20592"
     d="m 15.212355,20.669241 v -8.030888 h 1.364222 1.364221 v 8.030888 8.030888 h -1.364221 -1.364222 z"
     id="path18"
     transform="matrix(24,0,0,24,0,-960)" />
  <path
     style="opacity:0;fill:#ffffff;fill-opacity:0;stroke-width:0.20592"
     d="m 15.212355,20.669241 v -8.030888 h 1.364222 1.364221 v 8.030888 8.030888 h -1.364221 -1.364222 z"
     id="path19"
     transform="matrix(24,0,0,24,0,-960)" />
  <path
     style="opacity:0;fill:#ffffff;fill-opacity:0;stroke-width:0.20592"
     d="m 15.212355,20.669241 v -8.030888 h 1.364222 1.364221 v 8.030888 8.030888 h -1.364221 -1.364222 z"
     id="path20"
     transform="matrix(24,0,0,24,0,-960)" />
  <path
     style="opacity:0;fill:#ffffff;fill-opacity:0;stroke-width:0.20592"
     d="m 15.212355,20.669241 v -8.030888 h 1.364222 1.364221 v 8.030888 8.030888 h -1.364221 -1.364222 z"
     id="path21"
     transform="matrix(24,0,0,24,0,-960)" />
</svg>
